<?xml version="1.0" encoding="UTF-8" standalone="no"?><svg xmlns="http://www.w3.org/2000/svg" xmlns:xlink="http://www.w3.org/1999/xlink" contentScriptType="application/ecmascript" contentStyleType="text/css" height="233px" preserveAspectRatio="none" style="width:356px;height:233px;" version="1.1" viewBox="0 0 356 233" width="356px" zoomAndPan="magnify"><defs/><g><!--MD5=[e80bd461753d6c5ec111731420959425]
cluster Main--><path d="M25,32.5 L59,32.5 A4.5,4.5 0 0 1 62,35.5 L69,52.4688 L91,52.4688 A3,3 0 0 1 94,55.4688 L94,103.5 A3,3 0 0 1 91,106.5 L25,106.5 A3,3 0 0 1 22,103.5 L22,35.5 A3,3 0 0 1 25,32.5 " fill="#FFFFFF" style="stroke: #000000; stroke-width: 1.5;"/><line style="stroke: #000000; stroke-width: 1.5;" x1="22" x2="69" y1="52.4688" y2="52.4688"/><text fill="#000000" font-family="Tahoma, sans-serif" font-size="12" font-weight="bold" lengthAdjust="spacingAndGlyphs" textLength="34" x="26" y="45.6387">Main</text><!--MD5=[ed1d20ea533a2a0e7df5ba3c35e56ced]
cluster Controllers--><path d="M121,24 L203,24 A4.5,4.5 0 0 1 206,27 L213,43.9688 L341,43.9688 A3,3 0 0 1 344,46.9688 L344,112 A3,3 0 0 1 341,115 L121,115 A3,3 0 0 1 118,112 L118,27 A3,3 0 0 1 121,24 " fill="#FFFFFF" style="stroke: #000000; stroke-width: 1.5;"/><line style="stroke: #000000; stroke-width: 1.5;" x1="118" x2="213" y1="43.9688" y2="43.9688"/><text fill="#000000" font-family="Tahoma, sans-serif" font-size="12" font-weight="bold" lengthAdjust="spacingAndGlyphs" textLength="82" x="122" y="37.1387">Controllers</text><!--MD5=[114f4823940f317c08f5bedd633c9afd]
cluster Entities--><path d="M151,139 L207,139 A4.5,4.5 0 0 1 210,142 L217,158.9688 L311,158.9688 A3,3 0 0 1 314,161.9688 L314,218 A3,3 0 0 1 311,221 L151,221 A3,3 0 0 1 148,218 L148,142 A3,3 0 0 1 151,139 " fill="#FFFFFF" style="stroke: #000000; stroke-width: 1.5;"/><line style="stroke: #000000; stroke-width: 1.5;" x1="148" x2="217" y1="158.9688" y2="158.9688"/><text fill="#000000" font-family="Tahoma, sans-serif" font-size="12" font-weight="bold" lengthAdjust="spacingAndGlyphs" textLength="56" x="152" y="152.1387">Entities</text><ellipse cx="57.7635" cy="77.3774" fill="#F8F8F8" rx="19.2635" ry="12.8774" style="stroke: #383838; stroke-width: 0.5;"/><text fill="#000000" font-family="Tahoma, sans-serif" font-size="12" font-weight="bold" lengthAdjust="spacingAndGlyphs" textLength="23" x="46.2635" y="80.8618">src</text><ellipse cx="231.2472" cy="77.7494" fill="#F8F8F8" rx="96.7472" ry="21.7494" style="stroke: #383838; stroke-width: 0.5;"/><text fill="#000000" font-family="Tahoma, sans-serif" font-size="12" lengthAdjust="spacingAndGlyphs" textLength="174" x="144.2472" y="81.2338">TripleCheckBrokerController</text><!--MD5=[6c9487285b1b092afd3435e5b6148bb6]
entity _TripleCheckBroker--><rect fill="#F8F8F8" height="33.9688" rx="3" ry="3" style="stroke: #000000; stroke-width: 0.5;" width="133" x="164.5" y="171"/><text fill="#000000" font-family="Tahoma, sans-serif" font-size="12" lengthAdjust="spacingAndGlyphs" textLength="113" x="174.5" y="192.1387">TripleCheckBroker</text><!--MD5=[71a32aeb44be822ff892556fb541311b]
link <b>src</b> to TripleCheckBrokerController--><path d="M77.5977,77.5 C94.7037,77.5 111.81,77.5 128.916,77.5 " fill="none" id="&lt;b&gt;src&lt;/b&gt;-&gt;TripleCheckBrokerController" style="stroke: #000000; stroke-width: 1.0;"/><polygon fill="#000000" points="134.225,77.5,125.225,73.5,129.225,77.5,125.225,81.5,134.225,77.5" style="stroke: #000000; stroke-width: 1.0;"/><!--MD5=[d8654685f0e1e17633b4c75e7af1109c]
link TripleCheckBrokerController to _TripleCheckBroker--><path d="M231,99.163 C231,118.272 231,146.5455 231,165.8176 " fill="none" id="TripleCheckBrokerController-&gt;_TripleCheckBroker" style="stroke: #000000; stroke-width: 0.5;"/><polygon fill="#000000" points="231,170.9996,235,161.9996,231,165.9996,227,161.9996,231,170.9996" style="stroke: #000000; stroke-width: 0.5;"/><script type="text/plantuml"><![CDATA[MD5=[3c254a22d9d9e51888b93dc8a70938f5]
@startuml

scale max 1920 width
top to bottom direction

skinparam nodesep 11
skinparam ranksep 22
skinparam monochrome true
skinparam shadowing false
skinparam defaultFontName Tahoma
skinparam defaultFontSize 12
skinparam roundCorner 6
skinparam dpi 150
skinparam arrowColor black
skinparam arrowThickness 0.5
skinparam packageTitleAlignment left

skinparam usecase {
  borderThickness 0.5
}

skinparam rectangle {
  borderThickness 0.5
}

skinparam component {
  borderThickness 1
}


package "Main" {
  (<b>src</b>)
}

package "Controllers" {
  (TripleCheckBrokerController)
}


package "Entities" {
  rectangle "TripleCheckBroker" as _TripleCheckBroker
}

(<b>src</b>) -[thickness=1]> (TripleCheckBrokerController)
(TripleCheckBrokerController) --> _TripleCheckBroker

@enduml


' View and edit on https://arkit.pro
]]></script></g></svg>